<?xml version="1.0" encoding="UTF-8"?>
<svg id="Layer_1" data-name="Layer 1" xmlns="http://www.w3.org/2000/svg" version="1.1" viewBox="0 0 100 100">
  <defs>
    <style>
      .cls-1 {
        fill: #fff;
        stroke-width: 0px;
      }
    </style>
  </defs>
  <path class="cls-1" d="M70.68,52.42c-.88-.8-1.75-1.6-2.64-2.42,2.24-2.04,4.44-4.04,6.64-6.04,5.13-4.66,10.26-9.32,15.37-14,.72-.66,1.29-1.41,1.27-2.55-.02-.9-.29-1.35-1.06-1.82-1.02-.61-1.93-.65-3.03-.29-6.79,2.2-13.6,4.34-20.4,6.5-2.58.82-5.16,1.64-7.79,2.47-.05-.15-.08-.24-.1-.33-2.08-9.53-4.18-19.06-6.24-28.59-.22-1.01-.8-1.7-1.61-2.26-.68-.47-1.41-.53-2.13-.18-.92.45-1.57,1.21-1.78,2.19-1.83,8.48-3.62,16.97-5.43,25.45-.26,1.23-.53,2.45-.8,3.7-.24-.07-.41-.12-.58-.18-9.23-2.92-18.46-5.84-27.68-8.79-1.07-.34-2.03-.5-2.95.32-.21.19-.51.29-.74.47-.12.09-.26.23-.27.37-.17,1.4.13,2.61,1.23,3.61,6,5.42,11.97,10.87,17.95,16.32,1.31,1.19,2.62,2.39,3.98,3.63-.17.15-.31.26-.44.38-7.18,6.55-14.36,13.09-21.53,19.65-.77.71-1.24,1.55-1.23,2.69,0,.82.29,1.21.94,1.68,1.04.75,2,.68,3.12.32,8.08-2.6,16.17-5.17,24.26-7.75,1.3-.41,2.6-.83,3.93-1.25.06.19.11.33.14.47,1,4.58,1.99,9.16,2.99,13.74,1.09,5.01,2.18,10.01,3.29,15.02.29,1.32,1.47,2.35,2.58,2.34,1.38,0,2.53-.98,2.83-2.4,1.88-8.77,3.75-17.54,5.63-26.31.2-.94.41-1.88.63-2.84.22.06.38.1.54.15,3.36,1.08,6.73,2.16,10.09,3.23,5.87,1.88,11.75,3.74,17.62,5.64,1.03.33,1.97.47,2.88-.27.25-.2.58-.31.86-.48.11-.07.25-.19.26-.31.17-1.37-.06-2.59-1.15-3.58-6.48-5.9-12.95-11.81-19.43-17.71Z"/>
</svg>