<?xml version="1.0" encoding="UTF-8"?>
<svg id="Layer_1" data-name="Layer 1" xmlns="http://www.w3.org/2000/svg" version="1.1" viewBox="0 0 100 100">
  <defs>
    <style>
      .cls-1 {
        fill: #fff;
        stroke-width: 0px;
      }
    </style>
  </defs>
  <path class="cls-1" d="M32.3,53.6c-7.3,2.9-14.7,5.7-22,8.6,1,2.5,2,4.9,2.9,7.3,7.3-3.2,14.5-6.4,21.7-9.5,0,0,0,0,0,.1-5.7,5.4-11.3,10.8-17,16.3,1.9,1.8,3.8,3.6,5.7,5.4,5.4-5.5,10.8-11.2,16.3-16.9h0c-3.2,7.2-6.3,14.4-9.5,21.6,2.5,1.1,4.8,2.2,7.3,3.2,2.9-7.4,5.8-14.8,8.6-22.2h0c-.2,7.9-.4,15.8-.5,23.7h7.9c-.2-7.9-.3-15.8-.5-23.7,0,0,0,0,0,0,2.9,7.4,5.8,14.8,8.7,22.2,2.4-1.1,4.8-2.2,7.2-3.2-3.2-7.2-6.3-14.4-9.5-21.6h0c5.5,5.7,11,11.3,16.4,17,1.9-1.9,3.7-3.7,5.6-5.6-5.6-5.4-11.3-10.9-17-16.3,0,0,0,0,0,0,7.2,3.2,14.4,6.4,21.7,9.6,1-2.5,2-4.9,3-7.3-7.4-2.9-14.8-5.8-22.1-8.7,0,0,0,0,0-.1,7.9.1,15.8.3,23.8.4v-7.9c-7.9.2-15.8.4-23.7.5,0,0,0,0,0,0,7.3-2.9,14.7-5.8,22.1-8.6-1-2.5-2-4.9-3-7.3-7.3,3.2-14.5,6.4-21.7,9.6,0,0,0,0,0,0,5.7-5.5,11.4-10.9,17-16.3-1.8-1.9-3.6-3.8-5.4-5.7-5.6,5.8-11.1,11.5-16.6,17.2,0,0,0,0,0,0,3.2-7.2,6.3-14.5,9.5-21.7-2.4-1.1-4.8-2.1-7.2-3.1-2.9,7.4-5.8,14.8-8.7,22.2,0,0,0,0,0,0,.2-7.9.3-15.8.5-23.7h-7.9c.2,7.9.4,15.8.5,23.7,0,0,0,0,0,0-2.9-7.4-5.8-14.7-8.6-22.1-2.5,1.1-4.9,2.1-7.3,3.1,3.2,7.3,6.4,14.5,9.5,21.8,0,0,0,0,0,0-5.5-5.7-11-11.4-16.5-17.1-1.8,1.9-3.7,3.7-5.5,5.6,5.6,5.4,11.3,10.8,16.9,16.3,0,0,0,0,0,.1-7.2-3.2-14.4-6.3-21.6-9.5-1,2.5-1.9,4.9-2.9,7.3,7.4,2.9,14.7,5.8,22,8.6,0,0,0,0,0,0-7.9-.2-15.8-.4-23.7-.5v8c7.9-.2,15.8-.3,23.7-.5,0,0,0,0,0,0Z"/>
</svg>