<?xml version="1.0" encoding="UTF-8"?>
<svg id="Layer_1" data-name="Layer 1" xmlns="http://www.w3.org/2000/svg" version="1.1" viewBox="0 0 48.85 96.9">
  <defs>
    <style>
      .cls-1 {
        fill: #f2a2dd;
        stroke-width: 0px;
      }
    </style>
  </defs>
  <path class="cls-1" d="M5.87,70.58c5.51,5.46,10.95,10.85,16.42,16.28-2.02-7.38-4.04-14.74-6.08-22.18,7.48,2.02,14.86,4.02,22.23,6.01.02-.03.03-.06.05-.09-5.44-5.4-10.87-10.8-16.37-16.26,7.51-1.97,14.94-3.92,22.37-5.87,0-.04-.01-.07-.02-.11-7.43-1.93-14.85-3.86-22.35-5.8,5.5-5.46,10.93-10.86,16.36-16.25-.02-.03-.04-.06-.06-.09-7.38,2-14.76,4-22.22,6.02,2.05-7.47,4.07-14.84,6.11-22.28-5.53,5.47-11,10.87-16.47,16.29C3.92,18.82,1.99,11.35.06,3.88c-.02,0-.04,0-.06,0v89.15s.04,0,.06,0c1.93-7.46,3.86-14.92,5.81-22.43Z"/>
</svg>