<?xml version="1.0" encoding="UTF-8"?>
<svg id="Layer_1" data-name="Layer 1" xmlns="http://www.w3.org/2000/svg" version="1.1" viewBox="0 0 45.21 100">
  <defs>
    <style>
      .cls-1 {
        fill: #f2a2dd;
        stroke-width: 0px;
      }
    </style>
  </defs>
  <path class="cls-1" d="M2.77,94.33c1.88-8.77,3.75-17.54,5.63-26.31.2-.94.41-1.88.63-2.84.22.06.38.1.54.15,3.36,1.08,6.73,2.16,10.09,3.23,5.87,1.88,11.75,3.74,17.62,5.64,1.03.33,1.97.47,2.88-.27.25-.2.58-.31.86-.48.11-.07.25-.19.26-.31.17-1.37-.06-2.59-1.15-3.58-6.48-5.9-12.95-11.81-19.43-17.71-.88-.8-1.75-1.6-2.64-2.42,2.24-2.04,4.44-4.04,6.64-6.04,5.13-4.66,10.26-9.32,15.37-14,.72-.66,1.29-1.41,1.27-2.55-.02-.9-.29-1.35-1.06-1.82-1.02-.61-1.93-.65-3.03-.29-6.79,2.2-13.6,4.34-20.4,6.5-2.58.82-5.16,1.64-7.79,2.47-.05-.15-.08-.24-.1-.33C6.85,23.85,4.76,14.32,2.7,4.79c-.22-1.01-.8-1.7-1.61-2.26-.35-.24-.72-.37-1.09-.39v94.58c1.35-.04,2.47-.99,2.77-2.39Z"/>
</svg>