<?xml version="1.0" encoding="UTF-8"?>
<svg id="Layer_1" data-name="Layer 1" xmlns="http://www.w3.org/2000/svg" version="1.1" viewBox="0 0 100 100">
  <defs>
    <style>
      .cls-1 {
        fill: #fff;
        stroke-width: 0px;
      }
    </style>
  </defs>
  <path class="cls-1" d="M5.51,49.91s0,.07,0,.11c7.45,1.95,14.9,3.9,22.43,5.87-5.54,5.48-11,10.89-16.46,16.3.02.03.04.05.06.08,7.39-2.01,14.79-4.01,22.27-6.04-2.05,7.47-4.07,14.84-6.11,22.29,5.53-5.47,11-10.88,16.48-16.3,1.92,7.43,3.86,14.89,5.79,22.36.03,0,.07-.01.1-.02,1.93-7.46,3.86-14.92,5.81-22.43,5.51,5.46,10.95,10.85,16.42,16.28-2.02-7.38-4.04-14.74-6.08-22.18,7.48,2.02,14.86,4.02,22.23,6.01.02-.03.03-.06.05-.09-5.44-5.4-10.87-10.8-16.37-16.26,7.51-1.97,14.94-3.92,22.37-5.87,0-.04-.01-.07-.02-.11-7.43-1.93-14.85-3.86-22.35-5.8,5.5-5.46,10.93-10.86,16.36-16.25-.02-.03-.04-.06-.06-.09-7.38,2-14.76,4-22.22,6.02,2.05-7.47,4.07-14.84,6.11-22.28-5.53,5.47-11,10.87-16.47,16.29-1.92-7.43-3.86-14.91-5.79-22.38-.03,0-.07,0-.1,0-1.94,7.48-3.87,14.95-5.81,22.43-5.49-5.44-10.95-10.84-16.44-16.27,2.03,7.38,4.05,14.75,6.09,22.2-7.46-2.02-14.84-4.02-22.23-6.02-.02.04-.04.08-.05.11,5.45,5.39,10.91,10.79,16.41,16.23-7.55,1.95-14.99,3.88-22.43,5.81Z"/>
</svg>