<?xml version="1.0" encoding="UTF-8"?>
<svg id="Layer_1" data-name="Layer 1" xmlns="http://www.w3.org/2000/svg" version="1.1" viewBox="0 0 100 100">
  <defs>
    <style>
      .cls-1 {
        fill: #fff;
        stroke-width: 0px;
      }
    </style>
  </defs>
  <path class="cls-1" d="M92.93,67.78c-6.96-5.99-13.81-11.87-20.68-17.78,6.88-5.91,13.71-11.78,20.53-17.65-.02-.04-.04-.08-.05-.11-8.97.68-17.94,1.37-26.97,2.05.66-9.04,1.32-18.04,1.98-27.03-.04-.01-.08-.02-.12-.03-5.87,6.84-11.74,13.69-17.64,20.56-5.93-6.91-11.81-13.78-17.77-20.74.7,9.17,1.38,18.19,2.07,27.24-9.09-.69-18.07-1.37-27.06-2.05-.01.04-.03.07-.04.11,6.85,5.88,13.71,11.75,20.59,17.65-6.9,5.92-13.76,11.81-20.71,17.77,9.15-.67,18.16-1.33,27.22-2-.69,9.07-1.37,18.05-2.07,27.17,5.98-6.96,11.86-13.81,17.77-20.68,5.91,6.88,11.78,13.71,17.65,20.54l.11-.04c-.66-8.98-1.32-17.97-1.98-26.99,9.06.67,18.04,1.33,27.17,2Z"/>
</svg>