<?xml version="1.0" encoding="UTF-8"?>
<svg id="Layer_1" data-name="Layer 1" xmlns="http://www.w3.org/2000/svg" version="1.1" viewBox="0 0 100 100">
  <defs>
    <style>
      .cls-1 {
        fill: #fff;
        stroke-width: 0px;
      }
    </style>
  </defs>
  <path class="cls-1" d="M68.01,59.19c8.27-6.17,16.52-12.36,24.77-18.55.24-.18.46-.37.85-.68h-1.09c-9.82,0-19.64,0-29.47.02-.68,0-.99-.19-1.23-.84-2.91-7.98-5.84-15.95-8.77-23.92-1-2.73-2.01-5.46-3.06-8.31-.13.34-.21.56-.29.78-3.86,10.44-7.74,20.88-11.57,31.33-.28.77-.65.98-1.45.98-9.77-.03-19.54-.02-29.31-.02h-1.02c.44.34.67.54.92.73,8.27,6.21,16.54,12.41,24.82,18.61.42.32.61.56.39,1.14-3.49,9.11-6.95,18.24-10.42,27.36-.64,1.69-1.28,3.39-1.92,5.08.04.03.09.07.13.1,9.89-7.42,19.78-14.83,29.73-22.29,9.93,7.44,19.82,14.86,29.91,22.43-.16-.44-.23-.65-.31-.86-4-10.54-7.99-21.08-12.01-31.6-.27-.69-.18-1.02.41-1.46Z"/>
</svg>