<?xml version="1.0" encoding="UTF-8"?>
<svg id="Layer_1" data-name="Layer 1" xmlns="http://www.w3.org/2000/svg" version="1.1" viewBox="0 0 100 100">
  <defs>
    <style>
      .cls-1 {
        fill: #f25c05;
        stroke-width: 0px;
      }
    </style>
  </defs>
  <path class="cls-1" d="M71.9,52.6c-.9-.8-1.8-1.7-2.8-2.6,2.4-2.2,4.7-4.3,7-6.4,5.4-4.9,10.8-9.9,16.2-14.8.8-.7,1.4-1.5,1.3-2.7,0-1-.3-1.4-1.1-1.9-1.1-.6-2-.7-3.2-.3-7.2,2.3-14.4,4.6-21.6,6.9-2.7.9-5.5,1.7-8.2,2.6,0-.2,0-.3-.1-.3-2.2-10.1-4.4-20.1-6.6-30.2-.2-1.1-.8-1.8-1.7-2.4-.7-.5-1.5-.6-2.3-.2-1,.5-1.7,1.3-1.9,2.3-1.9,9-3.8,17.9-5.7,26.9-.3,1.3-.6,2.6-.8,3.9-.3,0-.4-.1-.6-.2-9.8-3.1-19.5-6.2-29.3-9.3-1.1-.4-2.1-.5-3.1.3-.2.2-.5.3-.8.5-.1,0-.3.2-.3.4-.2,1.5.1,2.8,1.3,3.8,6.3,5.7,12.7,11.5,19,17.3,1.4,1.3,2.8,2.5,4.2,3.8-.2.2-.3.3-.5.4-7.6,6.9-15.2,13.8-22.8,20.8-.8.8-1.3,1.6-1.3,2.8,0,.9.3,1.3,1,1.8,1.1.8,2.1.7,3.3.3,8.5-2.7,17.1-5.5,25.6-8.2,1.4-.4,2.7-.9,4.2-1.3,0,.2.1.3.1.5,1.1,4.8,2.1,9.7,3.2,14.5,1.2,5.3,2.3,10.6,3.5,15.9.3,1.4,1.6,2.5,2.7,2.5,1.5,0,2.7-1,3-2.5,2-9.3,4-18.5,6-27.8.2-1,.4-2,.7-3,.2,0,.4.1.6.2,3.6,1.1,7.1,2.3,10.7,3.4,6.2,2,12.4,4,18.6,6,1.1.3,2.1.5,3-.3.3-.2.6-.3.9-.5.1,0,.3-.2.3-.3.2-1.4,0-2.7-1.2-3.8-6.8-6.2-13.7-12.5-20.5-18.7h0Z"/>
</svg>