<?xml version="1.0" encoding="UTF-8"?>
<svg id="Layer_1" data-name="Layer 1" xmlns="http://www.w3.org/2000/svg" version="1.1" viewBox="0 0 100 100">
  <defs>
    <style>
      .cls-1 {
        fill: #f25c05;
        stroke-width: 0px;
      }
    </style>
  </defs>
  <path class="cls-1" d="M.1,49.9H.1c8.4,2.3,16.7,4.5,25.2,6.7-6.2,6.1-12.3,12.2-18.5,18.3,0,0,0,0,0,0,8.3-2.3,16.6-4.5,25-6.8-2.3,8.4-4.6,16.6-6.9,25,6.2-6.1,12.3-12.2,18.5-18.3,2.2,8.3,4.3,16.7,6.5,25.1,0,0,0,0,.1,0,2.2-8.4,4.3-16.7,6.5-25.2,6.2,6.1,12.3,12.2,18.4,18.3-2.3-8.3-4.5-16.5-6.8-24.9,8.4,2.3,16.7,4.5,24.9,6.7,0,0,0,0,0-.1-6.1-6.1-12.2-12.1-18.4-18.2,8.4-2.2,16.8-4.4,25.1-6.6,0,0,0,0,0-.1-8.3-2.2-16.7-4.3-25.1-6.5,6.2-6.1,12.3-12.2,18.3-18.2,0,0,0,0,0-.1-8.3,2.2-16.6,4.5-24.9,6.8,2.3-8.4,4.6-16.6,6.9-25-6.2,6.1-12.3,12.2-18.5,18.3C54.4,16.8,52.2,8.4,50.1,0h-.1c-2.2,8.4-4.3,16.8-6.5,25.2-6.2-6.1-12.3-12.2-18.4-18.2,2.3,8.3,4.5,16.5,6.8,24.9-8.4-2.3-16.6-4.5-24.9-6.8,0,0,0,0,0,.1,6.1,6,12.2,12.1,18.4,18.2-8.5,2.2-16.8,4.4-25.2,6.5h0Z"/>
</svg>