<?xml version="1.0" encoding="UTF-8"?>
<svg id="Layer_1" data-name="Layer 1" xmlns="http://www.w3.org/2000/svg" version="1.1" viewBox="0 0 100 100">
  <defs>
    <style>
      .cls-1 {
        fill: #f25c05;
        stroke-width: 0px;
      }
    </style>
  </defs>
  <path class="cls-1" d="M100,70.7c-8.1-7-16.1-13.8-24.1-20.7,8-6.9,16-13.7,23.9-20.5,0,0,0,0,0-.1-10.4.8-20.9,1.6-31.4,2.4.8-10.5,1.5-21,2.3-31.5,0,0,0,0-.1,0-6.8,8-13.7,15.9-20.5,23.9C43.1,16.1,36.2,8.1,29.3,0c.8,10.7,1.6,21.2,2.4,31.7-10.6-.8-21-1.6-31.5-2.4,0,0,0,0,0,.1,8,6.8,16,13.7,24,20.5C16.1,56.9,8.1,63.8,0,70.7c10.7-.8,21.1-1.5,31.7-2.3-.8,10.6-1.6,21-2.4,31.6,7-8.1,13.8-16.1,20.7-24.1,6.9,8,13.7,16,20.5,23.9h.1c-.8-10.5-1.5-21-2.3-31.5,10.5.8,21,1.5,31.6,2.3h0Z"/>
</svg>