<?xml version="1.0" encoding="UTF-8"?>
<svg id="Layer_1" data-name="Layer 1" xmlns="http://www.w3.org/2000/svg" version="1.1" viewBox="0 0 100 100">
  <defs>
    <style>
      .cls-1 {
        fill: #475939;
        stroke-width: 0px;
      }
    </style>
  </defs>
  <path class="cls-1" d="M28.5,54.4c-8.9,3.5-17.9,6.9-26.8,10.5,1.2,3,2.4,6,3.5,8.9,8.9-3.9,17.7-7.8,26.4-11.6h0c-6.9,6.7-13.8,13.3-20.7,20,2.3,2.2,4.6,4.4,6.9,6.6,6.6-6.7,13.2-13.6,19.9-20.6h0c-3.9,8.8-7.7,17.5-11.6,26.3,3,1.3,5.8,2.7,8.9,3.9,3.5-9,7.1-18,10.5-27h0c-.2,9.6-.5,19.2-.6,28.9h9.6c-.2-9.6-.4-19.2-.6-28.9h0c3.5,9,7.1,18,10.6,27,2.9-1.3,5.8-2.7,8.8-3.9-3.9-8.8-7.7-17.5-11.6-26.3h0c6.7,6.9,13.4,13.8,20,20.7l6.8-6.8c-6.8-6.6-13.8-13.3-20.7-19.9h0c8.8,3.9,17.5,7.8,26.4,11.7,1.2-3,2.4-6,3.7-8.9-9-3.5-18-7.1-26.9-10.6h0c9.6,0,19.2.2,29,.4v-9.6c-9.6.2-19.2.5-28.9.6h0c8.9-3.5,17.9-7.1,26.9-10.5-1.2-3-2.4-6-3.7-8.9-8.9,3.9-17.7,7.8-26.4,11.7h0c6.9-6.7,13.9-13.3,20.7-19.9-2.2-2.3-4.4-4.6-6.6-6.9-6.8,7.1-13.5,14-20.2,21h0c3.9-8.8,7.7-17.7,11.6-26.4-2.9-1.3-5.8-2.6-8.8-3.8-3.5,9-7.1,18-10.6,27h0c.2-9.6.4-19.2.6-28.9h-9.6c.2,9.6.5,19.2.6,28.9h0c-3.5-9-7.1-17.9-10.5-26.9-3,1.3-6,2.6-8.9,3.8,3.9,8.9,7.8,17.7,11.6,26.6h0c-6.7-6.9-13.4-13.9-20.1-20.8-2.2,2.3-4.5,4.5-6.7,6.8,6.8,6.6,13.8,13.2,20.6,19.9h0c-8.8-3.8-17.5-7.6-26.3-11.4-1.2,3-2.3,6-3.5,8.9,9,3.5,17.9,7.1,26.8,10.5h0c-9.6-.2-19.2-.5-28.9-.6v9.7c9.6-.2,19.2-.4,28.9-.6h0v-.6h-.1Z"/>
</svg>