<?xml version="1.0" encoding="UTF-8"?>
<svg id="Layer_1" data-name="Layer 1" xmlns="http://www.w3.org/2000/svg" version="1.1" viewBox="0 0 100 100">
  <defs>
    <style>
      .cls-1 {
        fill: #475939;
        stroke-width: 0px;
      }
    </style>
  </defs>
  <path class="cls-1" d="M70.9,60.6c9.6-7.2,19.2-14.3,28.7-21.5.3-.2.5-.4,1-.8h-35.5c-.8,0-1.1-.2-1.4-1-3.4-9.3-6.8-18.5-10.2-27.7-1.2-3.2-2.3-6.3-3.5-9.6-.2.4-.2.6-.3.9-4.5,12.1-9,24.2-13.4,36.3-.3.9-.8,1.1-1.7,1.1H-.6c.5.4.8.6,1.1.8,9.6,7.2,19.2,14.4,28.8,21.6.5.4.7.6.5,1.3-4,10.6-8.1,21.2-12.1,31.7-.7,2-1.5,3.9-2.2,5.9h.2c11.5-8.6,22.9-17.2,34.5-25.8,11.5,8.6,23,17.2,34.7,26-.2-.5-.3-.8-.4-1-4.6-12.2-9.3-24.4-13.9-36.6-.3-.8-.2-1.2.5-1.7h-.2,0Z"/>
</svg>